<svg width="102" height="48" viewBox="0 0 102 48" fill="none" xmlns="http://www.w3.org/2000/svg">
<g clip-path="url(#clip0_348_6491)">
<path d="M11.3685 8.743C11.2069 9.52172 10.829 10.1892 10.3117 10.6099C9.7943 11.0306 9.17623 11.1729 8.583 11.008C7.758 9.598 8.8995 5.876 8.8995 5.876C8.19528 7.2625 7.76192 8.86155 7.63875 10.528C7.09199 10.1445 6.67749 9.49416 6.48183 8.71282C6.28617 7.93149 6.32448 7.07957 6.58875 6.335C7.707 2.289 11.0295 0 11.0295 0C11.86 2.78547 11.9792 5.85819 11.3685 8.743ZM7.143 24.755C8.043 26.505 8.14125 28.455 6.99975 29.93C5.436 30.096 3.462 26.153 3.462 26.153C4.00942 28.016 4.8924 29.6707 6.033 30.971C4.70325 32.079 3.195 31.377 2.2395 29.612C0.12075 25.872 0.70875 21.369 1.3005 19.112C1.62124 19.8863 2.06024 20.5623 2.58913 21.0963C3.11803 21.6302 3.72506 22.0103 4.371 22.212C5.50004 22.5711 6.4889 23.4762 7.146 24.752L7.143 24.755ZM6.27225 20.527C7.83975 19.879 8.3595 18.166 8.22225 16.046C8.05999 14.5302 7.49914 13.1406 6.63975 12.125C6.12984 11.5297 5.71806 10.7999 5.43044 9.98158C5.14283 9.16331 4.98562 8.2744 4.96875 7.371C3.69375 8.971 1.6275 12.54 2.2065 17.171C2.45925 19.32 3.5565 20.88 5.112 20.789C4.51649 18.945 4.29011 16.9266 4.455 14.931C4.455 14.931 4.84275 19.679 6.2745 20.521L6.27225 20.527ZM9.5775 32.427C11.0198 33.191 11.9482 34.707 11.6025 36.865C10.4145 38.25 7.1505 36.465 7.1505 36.465C8.37992 37.5772 9.79743 38.2645 11.2755 38.465C10.668 40.396 9.111 40.965 7.6005 40.265C4.30575 38.712 2.946 34.601 2.4165 32.304C3.00292 32.7017 3.64711 32.9248 4.30455 32.958C4.96199 32.9911 5.61698 32.8335 6.22425 32.496C7.29449 31.9169 8.4882 31.8905 9.57225 32.422L9.5775 32.427ZM17.2335 43.252C17.1053 41.052 15.9435 39.96 14.3737 39.726C13.2326 39.6206 12.1017 40.0736 11.193 41C10.6816 41.5326 10.0904 41.9126 9.45939 42.1145C8.82838 42.3163 8.17222 42.3352 7.53525 42.17C8.45925 44.17 10.6103 47.675 14.0663 47.985C15.645 48.142 17.034 47.049 17.25 44.939C15.7825 45.2908 14.2717 45.1314 12.864 44.476C12.864 44.476 16.359 44.956 17.2335 43.252Z" fill="#C82634"/>
</g>
<path d="M42.168 33.7305H38.3008V40H33.7695V33.7305H20.7812V30.2539L33.8281 11.3672H38.3008V29.9219H42.168V33.7305ZM33.7695 29.9219V22.832C33.7695 22.2461 33.776 21.6536 33.7891 21.0547C33.8151 20.4427 33.8411 19.8568 33.8672 19.2969C33.8932 18.737 33.9193 18.2227 33.9453 17.7539C33.9714 17.2721 33.9909 16.875 34.0039 16.5625H33.8477C33.6003 17.0833 33.3268 17.6172 33.0273 18.1641C32.7279 18.6979 32.4089 19.2188 32.0703 19.7266L25.0391 29.9219H33.7695ZM50.8008 35.3516L51.0742 35.8008C50.8398 36.7383 50.5404 37.7474 50.1758 38.8281C49.8112 39.9089 49.4141 40.9896 48.9844 42.0703C48.5547 43.1641 48.1185 44.1927 47.6758 45.1562H44.3164C44.5898 44.1016 44.8503 42.9948 45.0977 41.8359C45.3581 40.6901 45.5924 39.5573 45.8008 38.4375C46.0221 37.3047 46.1979 36.276 46.3281 35.3516H50.8008ZM74.8828 23.6133C74.8828 25.306 74.7591 26.9661 74.5117 28.5938C74.2773 30.2214 73.8607 31.7448 73.2617 33.1641C72.6758 34.5833 71.862 35.8398 70.8203 36.9336C69.7917 38.0143 68.4896 38.8607 66.9141 39.4727C65.3385 40.0846 63.4375 40.3906 61.2109 40.3906C60.651 40.3906 60 40.3581 59.2578 40.293C58.5286 40.2409 57.9297 40.1628 57.4609 40.0586V36.2305C57.9557 36.3737 58.5091 36.4909 59.1211 36.582C59.7461 36.6602 60.3646 36.6992 60.9766 36.6992C63.3854 36.6992 65.2604 36.25 66.6016 35.3516C67.9557 34.4531 68.9128 33.2161 69.4727 31.6406C70.0456 30.0651 70.3711 28.2747 70.4492 26.2695H70.2148C69.8372 26.8945 69.362 27.4674 68.7891 27.9883C68.2161 28.4961 67.5065 28.9062 66.6602 29.2188C65.8138 29.5182 64.7852 29.668 63.5742 29.668C61.9336 29.668 60.5013 29.3229 59.2773 28.6328C58.0664 27.9427 57.1224 26.9401 56.4453 25.625C55.7812 24.2969 55.4492 22.7018 55.4492 20.8398C55.4492 18.8216 55.8333 17.0833 56.6016 15.625C57.3698 14.1667 58.457 13.0469 59.8633 12.2656C61.2695 11.4714 62.9232 11.0742 64.8242 11.0742C66.2565 11.0742 67.5781 11.3346 68.7891 11.8555C70.013 12.3633 71.0807 13.1445 71.9922 14.1992C72.9036 15.2409 73.6133 16.5495 74.1211 18.125C74.6289 19.6875 74.8828 21.5169 74.8828 23.6133ZM64.8828 14.8633C63.4375 14.8633 62.2591 15.3516 61.3477 16.3281C60.4362 17.2917 59.9805 18.776 59.9805 20.7812C59.9805 22.4089 60.3711 23.6979 61.1523 24.6484C61.9336 25.599 63.1315 26.0742 64.7461 26.0742C65.8659 26.0742 66.8294 25.8464 67.6367 25.3906C68.457 24.9219 69.0885 24.3294 69.5312 23.6133C69.987 22.8971 70.2148 22.168 70.2148 21.4258C70.2148 20.6576 70.1042 19.8893 69.8828 19.1211C69.6745 18.3529 69.349 17.6497 68.9062 17.0117C68.4635 16.3737 67.9036 15.8594 67.2266 15.4688C66.5625 15.0651 65.7812 14.8633 64.8828 14.8633Z" fill="#FEFEFE"/>
<g clip-path="url(#clip1_348_6491)">
<path d="M85.6315 8.743C85.7931 9.52172 86.171 10.1892 86.6883 10.6099C87.2057 11.0306 87.8238 11.1729 88.417 11.008C89.242 9.598 88.1005 5.876 88.1005 5.876C88.8047 7.2625 89.2381 8.86155 89.3612 10.528C89.908 10.1445 90.3225 9.49416 90.5182 8.71282C90.7138 7.93149 90.6755 7.07957 90.4113 6.335C89.293 2.289 85.9705 0 85.9705 0C85.14 2.78547 85.0208 5.85819 85.6315 8.743ZM89.857 24.755C88.957 26.505 88.8588 28.455 90.0002 29.93C91.564 30.096 93.538 26.153 93.538 26.153C92.9906 28.016 92.1076 29.6707 90.967 30.971C92.2968 32.079 93.805 31.377 94.7605 29.612C96.8792 25.872 96.2913 21.369 95.6995 19.112C95.3788 19.8863 94.9398 20.5623 94.4109 21.0963C93.882 21.6302 93.2749 22.0103 92.629 22.212C91.5 22.5711 90.5111 23.4762 89.854 24.752L89.857 24.755ZM90.7277 20.527C89.1602 19.879 88.6405 18.166 88.7778 16.046C88.94 14.5302 89.5009 13.1406 90.3603 12.125C90.8702 11.5297 91.2819 10.7999 91.5696 9.98158C91.8572 9.16331 92.0144 8.2744 92.0312 7.371C93.3062 8.971 95.3725 12.54 94.7935 17.171C94.5408 19.32 93.4435 20.88 91.888 20.789C92.4835 18.945 92.7099 16.9266 92.545 14.931C92.545 14.931 92.1572 19.679 90.7255 20.521L90.7277 20.527ZM87.4225 32.427C85.9802 33.191 85.0518 34.707 85.3975 36.865C86.5855 38.25 89.8495 36.465 89.8495 36.465C88.6201 37.5772 87.2026 38.2645 85.7245 38.465C86.332 40.396 87.889 40.965 89.3995 40.265C92.6943 38.712 94.054 34.601 94.5835 32.304C93.9971 32.7017 93.3529 32.9248 92.6955 32.958C92.038 32.9911 91.383 32.8335 90.7758 32.496C89.7055 31.9169 88.5118 31.8905 87.4278 32.422L87.4225 32.427ZM79.7665 43.252C79.8947 41.052 81.0565 39.96 82.6263 39.726C83.7674 39.6206 84.8983 40.0736 85.807 41C86.3184 41.5326 86.9096 41.9126 87.5406 42.1145C88.1716 42.3163 88.8278 42.3352 89.4648 42.17C88.5408 44.17 86.3897 47.675 82.9337 47.985C81.355 48.142 79.966 47.049 79.75 44.939C81.2175 45.2908 82.7283 45.1314 84.136 44.476C84.136 44.476 80.641 44.956 79.7665 43.252Z" fill="#C82634"/>
</g>
<defs>
<clipPath id="clip0_348_6491">
<rect width="18" height="48" fill="white" transform="matrix(-1 0 0 1 18 0)"/>
</clipPath>
<clipPath id="clip1_348_6491">
<rect width="18" height="48" fill="white" transform="translate(79)"/>
</clipPath>
</defs>
</svg>
