<svg width="290" height="56" viewBox="0 0 290 56" fill="none" xmlns="http://www.w3.org/2000/svg">
<path d="M32.5508 27.8483C38.1595 28.2079 43.7682 28.4997 47.391 28.4997C51.0138 28.4997 56.6225 28.213 62.2313 27.8483L62.5857 19.349C57.811 19.2813 52.515 19.25 47.391 19.25C42.267 19.25 36.9658 19.2813 32.1963 19.349L32.5508 27.8483Z" fill="#FEFEFE"/>
<path d="M14.1871 26.4277C14.3309 26.4383 22.956 27.2058 31.8584 27.8145L31.5144 19.25C23.6594 19.3665 17.4318 19.5782 16.2253 19.8746C14.259 20.3563 13.9869 21.9496 13.9664 23.0082C13.9561 23.5111 13.9561 24.8767 14.0896 26.4118L14.1871 26.4277Z" fill="#FEFEFE"/>
<path d="M62.9243 27.8145C71.9931 27.2103 80.7797 26.4419 80.9262 26.4259L81.0306 26.4153C81.1667 24.8837 81.1667 23.5164 81.1511 23.0129C81.1304 21.9529 80.853 20.3577 78.8495 19.8754C77.6154 19.5786 71.2768 19.3666 63.2747 19.25L62.9243 27.8145Z" fill="#FEFEFE"/>
<path d="M62.9871 28.8123L62.249 37.4065C66.786 36.6113 70.8897 35.76 72.5824 35.3165C76.3144 34.3379 78.6063 33.2725 79.8243 31.1418C80.3457 30.2293 80.6451 28.8378 80.8204 27.4717C79.9638 27.5482 71.5966 28.2516 62.9871 28.8123Z" fill="#FEFEFE"/>
<path d="M61.9109 28.8428C56.4206 29.2027 50.9406 29.4896 47.3915 29.4896C43.8423 29.4896 38.3623 29.2027 32.8721 28.8428L33.6147 37.7415C38.7925 38.6595 44.3493 39.4627 47.3915 39.4627C50.4336 39.4627 55.9904 38.6595 61.1683 37.7415L61.9109 28.8428Z" fill="#FEFEFE"/>
<path d="M31.7904 28.8072C23.1809 28.2465 14.8141 27.543 13.9624 27.4717C14.1327 28.8378 14.4373 30.2293 14.9586 31.1418C16.1716 33.2725 18.4684 34.3379 22.2002 35.3165C23.8932 35.76 27.9967 36.6062 32.5337 37.4065L31.7904 28.8072Z" fill="#FEFEFE"/>
<path d="M112.582 26.4869C110.166 26.4869 108.211 24.529 108.211 22.1095V4.40457C108.211 1.98524 110.166 0.0273438 112.582 0.0273438H142.899V4.5585H113.197V21.9417H137.899V15.5367H120.038V10.9635H142.899V26.4869H112.582Z" fill="#FEFEFE"/>
<path d="M154.756 26.4869C152.34 26.4869 150.386 24.529 150.386 22.1095V0.0273438H184.096V4.5585H155.371V10.9635H183.3V15.5226H155.371V21.9278H184.096V26.4869H154.756Z" fill="#FEFEFE"/>
<path d="M236.056 26.4875C233.64 26.4875 231.684 24.5157 231.684 22.1103V0H236.67V21.9284H261.512V26.4875H236.056Z" fill="#FEFEFE"/>
<path d="M195.321 26.4869C192.906 26.4869 190.951 24.529 190.951 22.1095V0.0273438H224.661V4.5585H195.935V10.9635H223.864V15.5226H195.935V21.9278H224.661V26.4869H195.321Z" fill="#FEFEFE"/>
<path d="M268.676 26.4875V16.3484L252.337 0H258.775L271.176 12.4047L283.562 0H290L273.661 16.3484V26.4875H268.676Z" fill="#FEFEFE"/>
<path d="M116.084 36.7735L110.765 56H108.211L113.529 36.7735H116.084Z" fill="#FEFEFE"/>
<path d="M132.671 41.9408C132.596 41.256 132.279 40.7228 131.72 40.3412C131.167 39.9596 130.447 39.7688 129.561 39.7688C128.938 39.7688 128.403 39.8603 127.957 40.0433C127.511 40.2262 127.17 40.4745 126.934 40.7882C126.697 41.1018 126.577 41.4599 126.571 41.8624C126.571 42.197 126.649 42.4871 126.805 42.7328C126.966 42.9785 127.184 43.1876 127.458 43.3601C127.732 43.5274 128.035 43.6685 128.368 43.7835C128.701 43.8985 129.037 43.9952 129.375 44.0736L130.923 44.45C131.546 44.5911 132.145 44.7819 132.719 45.0224C133.3 45.2629 133.818 45.5661 134.275 45.932C134.737 46.2979 135.102 46.7396 135.371 47.2571C135.639 47.7746 135.773 48.381 135.773 49.0763C135.773 50.0172 135.526 50.8458 135.032 51.5619C134.538 52.2728 133.823 52.8296 132.889 53.2321C131.959 53.6294 130.834 53.828 129.512 53.828C128.228 53.828 127.114 53.6346 126.168 53.2478C125.228 52.8609 124.492 52.2964 123.96 51.5541C123.434 50.8118 123.149 49.9074 123.106 48.841H126.047C126.09 49.4004 126.268 49.8656 126.579 50.2368C126.891 50.6079 127.296 50.885 127.796 51.0679C128.301 51.2509 128.865 51.3424 129.488 51.3424C130.138 51.3424 130.708 51.2483 131.197 51.0601C131.691 50.8667 132.078 50.6001 132.357 50.2603C132.636 49.9153 132.779 49.5128 132.784 49.0527C132.779 48.6346 132.652 48.2895 132.405 48.0177C132.158 47.7407 131.812 47.5107 131.366 47.3277C130.925 47.1395 130.41 46.9722 129.819 46.8259L127.941 46.3554C126.582 46.0156 125.508 45.5007 124.718 44.8107C123.934 44.1154 123.541 43.1928 123.541 42.0428C123.541 41.0966 123.805 40.2681 124.331 39.5571C124.863 38.8462 125.585 38.2947 126.499 37.9026C127.412 37.5054 128.446 37.3067 129.601 37.3067C130.772 37.3067 131.798 37.5054 132.679 37.9026C133.566 38.2947 134.261 38.841 134.766 39.5414C135.271 40.2367 135.532 41.0365 135.548 41.9408H132.671Z" fill="#FEFEFE"/>
<path d="M143.789 53.8202C142.548 53.8202 141.477 53.5692 140.574 53.0674C139.677 52.5604 138.987 51.8442 138.503 50.9189C138.02 49.9885 137.778 48.8933 137.778 47.6335C137.778 46.3946 138.02 45.3073 138.503 44.3716C138.992 43.4307 139.674 42.6988 140.55 42.1761C141.426 41.6481 142.454 41.3841 143.636 41.3841C144.399 41.3841 145.119 41.5043 145.796 41.7448C146.478 41.98 147.08 42.346 147.601 42.8426C148.127 43.3392 148.541 43.9717 148.842 44.7401C149.142 45.5033 149.293 46.4129 149.293 47.4688V48.3392H139.148V46.426H146.497C146.491 45.8823 146.37 45.3988 146.134 44.9754C145.898 44.5467 145.567 44.2095 145.143 43.9638C144.724 43.7182 144.235 43.5953 143.676 43.5953C143.08 43.5953 142.556 43.7365 142.105 44.0187C141.654 44.2958 141.302 44.6617 141.049 45.1165C140.802 45.5661 140.676 46.06 140.671 46.5985V48.2686C140.671 48.9691 140.802 49.5703 141.066 50.0721C141.329 50.5687 141.697 50.9503 142.17 51.2169C142.642 51.4783 143.196 51.609 143.83 51.609C144.254 51.609 144.638 51.5515 144.982 51.4365C145.326 51.3162 145.624 51.1411 145.876 50.9111C146.129 50.6811 146.319 50.3962 146.448 50.0564L149.172 50.3544C149 51.0549 148.672 51.6665 148.189 52.1892C147.711 52.7067 147.098 53.1092 146.352 53.3967C145.605 53.679 144.751 53.8202 143.789 53.8202Z" fill="#FEFEFE"/>
<path d="M151.761 53.5849V41.5409H154.589V43.5483H154.718C154.944 42.853 155.33 42.3172 155.878 41.9408C156.432 41.5592 157.063 41.3684 157.772 41.3684C157.933 41.3684 158.113 41.3763 158.312 41.392C158.516 41.4024 158.685 41.4207 158.819 41.4468V44.0579C158.696 44.0161 158.5 43.9795 158.231 43.9482C157.968 43.9116 157.713 43.8933 157.466 43.8933C156.934 43.8933 156.456 44.0057 156.031 44.2304C155.612 44.45 155.282 44.7558 155.04 45.1479C154.799 45.5399 154.678 45.9921 154.678 46.5044V53.5849H151.761Z" fill="#FEFEFE"/>
<path d="M172.19 41.5409L167.782 53.5849H164.559L160.151 41.5409H163.261L166.106 50.4877H166.235L169.087 41.5409H172.19Z" fill="#FEFEFE"/>
<path d="M174.208 53.5849V41.5409H177.125V53.5849H174.208ZM175.675 39.8316C175.213 39.8316 174.815 39.6826 174.482 39.3846C174.149 39.0814 173.983 38.7181 173.983 38.2947C173.983 37.8661 174.149 37.5027 174.482 37.2048C174.815 36.9016 175.213 36.75 175.675 36.75C176.142 36.75 176.54 36.9016 176.867 37.2048C177.201 37.5027 177.367 37.8661 177.367 38.2947C177.367 38.7181 177.201 39.0814 176.867 39.3846C176.54 39.6826 176.142 39.8316 175.675 39.8316Z" fill="#FEFEFE"/>
<path d="M185.524 53.8202C184.288 53.8202 183.227 53.5562 182.341 53.0282C181.46 52.5002 180.78 51.771 180.302 50.8405C179.83 49.9048 179.593 48.828 179.593 47.61C179.593 46.3868 179.835 45.3073 180.318 44.3716C180.802 43.4307 181.484 42.6988 182.365 42.1761C183.251 41.6481 184.299 41.3841 185.508 41.3841C186.512 41.3841 187.401 41.5645 188.175 41.9252C188.954 42.2806 189.574 42.7851 190.036 43.4385C190.498 44.0867 190.762 44.8447 190.826 45.7124H188.038C187.925 45.1322 187.657 44.6486 187.232 44.2618C186.813 43.8698 186.252 43.6737 185.548 43.6737C184.952 43.6737 184.428 43.8305 183.977 44.1442C183.525 44.4526 183.174 44.8969 182.921 45.4772C182.674 46.0574 182.55 46.7527 182.55 47.5629C182.55 48.3836 182.674 49.0893 182.921 49.68C183.168 50.2655 183.515 50.7177 183.961 51.0366C184.412 51.3502 184.941 51.507 185.548 51.507C185.978 51.507 186.362 51.4286 186.7 51.2718C187.044 51.1097 187.332 50.8771 187.563 50.5739C187.794 50.2707 187.952 49.9022 188.038 49.4683H190.826C190.756 50.3204 190.498 51.0758 190.052 51.7344C189.607 52.3878 189 52.9001 188.231 53.2713C187.463 53.6372 186.561 53.8202 185.524 53.8202Z" fill="#FEFEFE"/>
<path d="M198.701 53.8202C197.46 53.8202 196.388 53.5692 195.486 53.0674C194.588 52.5604 193.898 51.8442 193.415 50.9189C192.931 49.9885 192.689 48.8933 192.689 47.6335C192.689 46.3946 192.931 45.3073 193.415 44.3716C193.904 43.4307 194.586 42.6988 195.461 42.1761C196.337 41.6481 197.366 41.3841 198.548 41.3841C199.311 41.3841 200.03 41.5043 200.707 41.7448C201.389 41.98 201.991 42.346 202.512 42.8426C203.039 43.3392 203.452 43.9717 203.753 44.7401C204.054 45.5033 204.204 46.4129 204.204 47.4688V48.3392H194.059V46.426H201.408C201.403 45.8823 201.282 45.3988 201.046 44.9754C200.809 44.5467 200.479 44.2095 200.055 43.9638C199.636 43.7182 199.147 43.5953 198.588 43.5953C197.992 43.5953 197.468 43.7365 197.017 44.0187C196.565 44.2958 196.214 44.6617 195.961 45.1165C195.714 45.5661 195.588 46.06 195.582 46.5985V48.2686C195.582 48.9691 195.714 49.5703 195.977 50.0721C196.24 50.5687 196.608 50.9503 197.081 51.2169C197.554 51.4783 198.107 51.609 198.741 51.609C199.165 51.609 199.55 51.5515 199.893 51.4365C200.237 51.3162 200.535 51.1411 200.788 50.9111C201.04 50.6811 201.231 50.3962 201.36 50.0564L204.084 50.3544C203.912 51.0549 203.584 51.6665 203.1 52.1892C202.622 52.7067 202.01 53.1092 201.263 53.3967C200.517 53.679 199.662 53.8202 198.701 53.8202Z" fill="#FEFEFE"/>
<g clip-path="url(#clip0_348_6636)">
<path d="M47.1241 56C34.5402 56 22.7068 53.095 13.8056 47.7925C4.90439 42.5075 0 35.4725 0 28C0 20.5275 4.90439 13.4925 13.8056 8.2075C22.7068 2.905 34.5402 0 47.1241 0C59.7079 0 71.5413 2.905 80.4425 8.2075C89.3438 13.51 94.2481 20.5275 94.2481 28C94.2481 35.4725 89.3438 42.5075 80.4425 47.7925C71.5413 53.0775 59.7079 56 47.1241 56ZM47.1241 5.25C35.4652 5.25 24.5743 7.91 16.476 12.7225C9.23283 17.0275 5.23601 22.4525 5.23601 28C5.23601 33.5475 9.23283 38.9725 16.476 43.2775C24.5743 48.09 35.4652 50.75 47.1241 50.75C58.7829 50.75 69.6738 48.09 77.7722 43.2775C85.0153 38.9725 89.0121 33.5475 89.0121 28C89.0121 22.4525 85.0153 17.0275 77.7722 12.7225C69.6738 7.91 58.7829 5.25 47.1241 5.25Z" fill="#FEFEFE"/>
</g>
<defs>
<clipPath id="clip0_348_6636">
<rect width="94.2481" height="56" fill="white"/>
</clipPath>
</defs>
</svg>
