<svg width="32" height="32" viewBox="0 0 32 32" fill="none" xmlns="http://www.w3.org/2000/svg">
<circle cx="16" cy="16" r="16" fill="#1A6CF3"/>
<path d="M15.7916 8.0006C14.1748 7.97815 12.6029 8.58445 11.4352 9.70722C10.2675 10.83 9.59387 12.3794 9.57141 13.9962C9.57141 19.4529 15.7916 24.0114 15.7916 24.0114C15.7916 24.0114 22.0118 19.4529 22.0118 14.0187C21.9893 12.4019 21.3156 10.8525 20.148 9.72968C18.9803 8.58445 17.4084 7.97815 15.7916 8.0006ZM15.7916 17.6116C14.8485 17.6116 13.9502 17.2298 13.2766 16.5786C12.6029 15.9049 12.2436 15.0067 12.2436 14.0636C12.2436 13.1205 12.6254 12.2222 13.2766 11.5486C13.9502 10.8749 14.8485 10.5156 15.7916 10.5156C16.7347 10.5156 17.6329 10.8974 18.3066 11.5486C18.9803 12.2222 19.3396 13.1205 19.3396 14.0636C19.3396 15.0067 18.9578 15.9049 18.3066 16.5786C17.6329 17.2298 16.7347 17.6116 15.7916 17.6116Z" fill="white"/>
</svg>
