<svg width="166" height="32" viewBox="0 0 166 32" fill="none" xmlns="http://www.w3.org/2000/svg">
<path d="M18.6326 15.9133C21.8431 16.1188 25.0536 16.2855 27.1274 16.2855C29.2011 16.2855 32.4116 16.1217 35.6221 15.9133L35.825 11.0566C33.0919 11.0179 30.0604 11 27.1274 11C24.1943 11 21.1598 11.0179 18.4297 11.0566L18.6326 15.9133Z" fill="#1A6CF3"/>
<path d="M8.12083 15.1015C8.20312 15.1076 13.1403 15.5462 18.2361 15.894L18.0392 11C13.5429 11.0665 9.97814 11.1875 9.28753 11.3569C8.16197 11.6322 8.00622 12.5426 7.99446 13.1476C7.98859 13.4349 7.98859 14.2153 8.06499 15.0925L8.12083 15.1015Z" fill="#1A6CF3"/>
<path d="M36.0186 15.894C41.2097 15.5488 46.2392 15.1096 46.3231 15.1005L46.3828 15.0945C46.4607 14.2193 46.4607 13.4379 46.4518 13.1502C46.4399 12.5445 46.2812 11.6329 45.1344 11.3574C44.4279 11.1878 40.7997 11.0666 36.2191 11L36.0186 15.894Z" fill="#1A6CF3"/>
<path d="M36.0543 16.4653L35.6318 21.3763C38.2289 20.9218 40.5779 20.4354 41.5468 20.182C43.683 19.6228 44.995 19.014 45.6922 17.7964C45.9906 17.275 46.162 16.4798 46.2623 15.6992C45.772 15.7429 40.9825 16.1449 36.0543 16.4653Z" fill="#1A6CF3"/>
<path d="M35.4386 16.4805C32.2959 16.6861 29.1591 16.8501 27.1275 16.8501C25.0959 16.8501 21.9591 16.6861 18.8164 16.4805L19.2415 21.5654C22.2053 22.09 25.3861 22.549 27.1275 22.549C28.8689 22.549 32.0497 22.09 35.0135 21.5654L35.4386 16.4805Z" fill="#1A6CF3"/>
<path d="M18.1972 16.4604C13.269 16.14 8.47969 15.738 7.99219 15.6973C8.08969 16.4779 8.264 17.2731 8.56242 17.7945C9.25674 19.012 10.5715 19.6208 12.7076 20.18C13.6767 20.4334 16.0256 20.917 18.6227 21.3743L18.1972 16.4604Z" fill="#1A6CF3"/>
<path d="M64.4437 15.1354C63.0608 15.1354 61.9414 14.0166 61.9414 12.634V2.5169C61.9414 1.13443 63.0608 0.015625 64.4437 0.015625H81.7971V2.60486H64.7954V12.5381H78.9351V8.8781H68.7116V6.26487H81.7971V15.1354H64.4437Z" fill="#424D68"/>
<path d="M88.5845 15.1354C87.2015 15.1354 86.083 14.0166 86.083 12.634V0.015625H105.379V2.60486H88.9362V6.26487H104.923V8.87007H88.9362V12.5302H105.379V15.1354H88.5845Z" fill="#424D68"/>
<path d="M135.121 15.1357C133.739 15.1357 132.619 14.009 132.619 12.6344V0H135.473V12.5305H149.693V15.1357H135.121Z" fill="#424D68"/>
<path d="M111.804 15.1354C110.422 15.1354 109.303 14.0166 109.303 12.634V0.015625H128.599V2.60486H112.156V6.26487H128.143V8.87007H112.156V12.5302H128.599V15.1354H111.804Z" fill="#424D68"/>
<path d="M153.794 15.1357V9.34196L144.441 0H148.127L155.225 7.08842L162.315 0H166L156.647 9.34196V15.1357H153.794Z" fill="#424D68"/>
<path d="M66.4479 21.0134L63.4036 32H61.9414L64.9857 21.0134H66.4479Z" fill="#1A6CF3"/>
<path d="M75.9428 23.9662C75.8997 23.5749 75.7183 23.2702 75.3985 23.0521C75.0818 22.8341 74.6697 22.7251 74.1623 22.7251C73.8056 22.7251 73.4997 22.7773 73.2444 22.8819C72.9892 22.9864 72.7939 23.1283 72.6586 23.3075C72.5233 23.4868 72.4541 23.6914 72.4511 23.9214C72.4511 24.1126 72.4957 24.2783 72.5848 24.4187C72.6771 24.5591 72.8016 24.6786 72.9585 24.7772C73.1153 24.8728 73.289 24.9534 73.4797 25.0191C73.6703 25.0849 73.8625 25.1401 74.0562 25.1849L74.9418 25.4C75.2985 25.4807 75.6414 25.5897 75.9704 25.7271C76.3025 25.8645 76.5993 26.0377 76.8607 26.2468C77.1251 26.4559 77.3342 26.7084 77.488 27.0041C77.6417 27.2998 77.7186 27.6463 77.7186 28.0436C77.7186 28.5813 77.5771 29.0547 77.2942 29.464C77.0113 29.8702 76.6024 30.1883 76.0673 30.4183C75.5353 30.6454 74.8911 30.7589 74.1346 30.7589C73.3997 30.7589 72.7616 30.6483 72.2204 30.4273C71.6823 30.2062 71.261 29.8836 70.9566 29.4595C70.6553 29.0353 70.4923 28.5185 70.4677 27.9092H72.1513C72.1759 28.2288 72.2773 28.4946 72.4557 28.7067C72.634 28.9188 72.8662 29.0771 73.1522 29.1817C73.4412 29.2862 73.7641 29.3385 74.1208 29.3385C74.4929 29.3385 74.8188 29.2847 75.0987 29.1772C75.3816 29.0667 75.603 28.9143 75.7629 28.7202C75.9228 28.523 76.0043 28.293 76.0073 28.0301C76.0043 27.7912 75.932 27.594 75.7905 27.4387C75.6491 27.2804 75.4508 27.1489 75.1955 27.0444C74.9434 26.9369 74.6482 26.8413 74.3099 26.7576L73.2352 26.4888C72.4572 26.2946 71.8422 26.0004 71.3902 25.6061C70.9412 25.2088 70.7168 24.6816 70.7168 24.0244C70.7168 23.4838 70.8674 23.0103 71.1688 22.6041C71.4732 22.1978 71.8868 21.8827 72.4096 21.6587C72.9323 21.4316 73.5243 21.3181 74.1854 21.3181C74.8557 21.3181 75.4431 21.4316 75.9474 21.6587C76.4548 21.8827 76.853 22.1948 77.142 22.5951C77.4311 22.9924 77.5802 23.4494 77.5894 23.9662H75.9428Z" fill="#1A6CF3"/>
<path d="M82.3069 30.7544C81.5966 30.7544 80.9831 30.611 80.4665 30.3242C79.953 30.0345 79.5578 29.6253 79.2811 29.0965C79.0043 28.5648 78.866 27.939 78.866 27.2191C78.866 26.5112 79.0043 25.8899 79.2811 25.3552C79.5609 24.8175 79.9514 24.3993 80.4527 24.1006C80.9539 23.7989 81.5428 23.6481 82.2193 23.6481C82.6559 23.6481 83.068 23.7168 83.4554 23.8542C83.846 23.9886 84.1904 24.1977 84.4886 24.4815C84.79 24.7652 85.0268 25.1267 85.199 25.5658C85.3712 26.0019 85.4573 26.5217 85.4573 27.1251V27.6224H79.6501V26.5291H83.8567C83.8536 26.2185 83.7845 25.9422 83.6492 25.7002C83.5139 25.4553 83.3247 25.2626 83.0818 25.1222C82.842 24.9818 82.5621 24.9116 82.2423 24.9116C81.901 24.9116 81.6012 24.9923 81.3429 25.1536C81.0846 25.3119 80.8832 25.521 80.7386 25.7809C80.5972 26.0377 80.5249 26.32 80.5219 26.6277V27.5821C80.5219 27.9823 80.5972 28.3259 80.7479 28.6126C80.8985 28.8964 81.1092 29.1145 81.3798 29.2668C81.6504 29.4162 81.9671 29.4908 82.33 29.4908C82.5729 29.4908 82.7928 29.458 82.9896 29.3923C83.1864 29.3236 83.357 29.2235 83.5016 29.0921C83.6461 28.9606 83.7552 28.7978 83.829 28.6037L85.3881 28.7739C85.2897 29.1742 85.1021 29.5237 84.8254 29.8224C84.5517 30.1181 84.2011 30.3481 83.7737 30.5124C83.3463 30.6737 82.8573 30.7544 82.3069 30.7544Z" fill="#1A6CF3"/>
<path d="M86.8699 30.62V23.7377H88.4889V24.8847H88.5627C88.6918 24.4874 88.9132 24.1813 89.2269 23.9662C89.5436 23.7481 89.9049 23.6391 90.3108 23.6391C90.4031 23.6391 90.5061 23.6436 90.6199 23.6525C90.7367 23.6585 90.8336 23.669 90.9104 23.6839V25.176C90.8397 25.1521 90.7275 25.1312 90.5737 25.1132C90.4231 25.0923 90.277 25.0819 90.1355 25.0819C89.8311 25.0819 89.5574 25.1461 89.3145 25.2745C89.0747 25.4 88.8855 25.5747 88.7472 25.7988C88.6088 26.0228 88.5396 26.2812 88.5396 26.5739V30.62H86.8699Z" fill="#1A6CF3"/>
<path d="M98.5638 23.7377L96.0407 30.62H94.1957L91.6727 23.7377H93.4531L95.0813 28.8501H95.1551L96.788 23.7377H98.5638Z" fill="#1A6CF3"/>
<path d="M99.7192 30.62V23.7377H101.389V30.62H99.7192ZM100.559 22.7609C100.294 22.7609 100.067 22.6758 99.8761 22.5055C99.6854 22.3322 99.5901 22.1246 99.5901 21.8827C99.5901 21.6377 99.6854 21.4301 99.8761 21.2599C100.067 21.0866 100.294 21 100.559 21C100.826 21 101.054 21.0866 101.241 21.2599C101.432 21.4301 101.527 21.6377 101.527 21.8827C101.527 22.1246 101.432 22.3322 101.241 22.5055C101.054 22.6758 100.826 22.7609 100.559 22.7609Z" fill="#1A6CF3"/>
<path d="M106.196 30.7544C105.489 30.7544 104.882 30.6035 104.374 30.3018C103.87 30.0001 103.481 29.5834 103.207 29.0517C102.937 28.517 102.802 27.9017 102.802 27.2057C102.802 26.5067 102.94 25.8899 103.217 25.3552C103.493 24.8175 103.884 24.3993 104.388 24.1006C104.896 23.7989 105.495 23.6481 106.187 23.6481C106.762 23.6481 107.271 23.7511 107.714 23.9572C108.16 24.1604 108.515 24.4486 108.779 24.822C109.044 25.1924 109.195 25.6255 109.231 26.1214H107.636C107.571 25.7898 107.417 25.5135 107.174 25.2925C106.934 25.0684 106.613 24.9564 106.21 24.9564C105.869 24.9564 105.569 25.046 105.311 25.2253C105.052 25.4015 104.851 25.6554 104.707 25.987C104.565 26.3185 104.494 26.7158 104.494 27.1788C104.494 27.6478 104.565 28.0511 104.707 28.3886C104.848 28.7232 105.046 28.9815 105.302 29.1637C105.56 29.343 105.863 29.4326 106.21 29.4326C106.456 29.4326 106.676 29.3878 106.87 29.2982C107.067 29.2056 107.231 29.0726 107.363 28.8994C107.496 28.7261 107.586 28.5155 107.636 28.2676H109.231C109.191 28.7545 109.044 29.1862 108.789 29.5625C108.533 29.9359 108.186 30.2286 107.746 30.4407C107.306 30.6498 106.79 30.7544 106.196 30.7544Z" fill="#1A6CF3"/>
<path d="M113.739 30.7544C113.029 30.7544 112.415 30.611 111.899 30.3242C111.385 30.0345 110.99 29.6253 110.713 29.0965C110.436 28.5648 110.298 27.939 110.298 27.2191C110.298 26.5112 110.436 25.8899 110.713 25.3552C110.993 24.8175 111.384 24.3993 111.885 24.1006C112.386 23.7989 112.975 23.6481 113.651 23.6481C114.088 23.6481 114.5 23.7168 114.888 23.8542C115.278 23.9886 115.622 24.1977 115.921 24.4815C116.222 24.7652 116.459 25.1267 116.631 25.5658C116.803 26.0019 116.889 26.5217 116.889 27.1251V27.6224H111.082V26.5291H115.289C115.286 26.2185 115.217 25.9422 115.081 25.7002C114.946 25.4553 114.757 25.2626 114.514 25.1222C114.274 24.9818 113.994 24.9116 113.674 24.9116C113.333 24.9116 113.033 24.9923 112.775 25.1536C112.517 25.3119 112.315 25.521 112.171 25.7809C112.029 26.0377 111.957 26.32 111.954 26.6277V27.5821C111.954 27.9823 112.029 28.3259 112.18 28.6126C112.331 28.8964 112.541 29.1145 112.812 29.2668C113.083 29.4162 113.399 29.4908 113.762 29.4908C114.005 29.4908 114.225 29.458 114.422 29.3923C114.618 29.3236 114.789 29.2235 114.934 29.0921C115.078 28.9606 115.187 28.7978 115.261 28.6037L116.82 28.7739C116.722 29.1742 116.534 29.5237 116.257 29.8224C115.984 30.1181 115.633 30.3481 115.206 30.5124C114.778 30.6737 114.289 30.7544 113.739 30.7544Z" fill="#1A6CF3"/>
<g clip-path="url(#clip0_306_4886)">
<path d="M26.9745 32C19.7713 32 12.9977 30.34 7.90252 27.31C2.80734 24.29 0 20.27 0 16C0 11.73 2.80734 7.71 7.90252 4.69C12.9977 1.66 19.7713 0 26.9745 0C34.1777 0 40.9512 1.66 46.0464 4.69C51.1416 7.72 53.9489 11.73 53.9489 16C53.9489 20.27 51.1416 24.29 46.0464 27.31C40.9512 30.33 34.1777 32 26.9745 32ZM26.9745 3C20.3008 3 14.0667 4.52 9.43107 7.27C5.285 9.73 2.99716 12.83 2.99716 16C2.99716 19.17 5.285 22.27 9.43107 24.73C14.0667 27.48 20.3008 29 26.9745 29C33.6482 29 39.8823 27.48 44.5179 24.73C48.6639 22.27 50.9518 19.17 50.9518 16C50.9518 12.83 48.6639 9.73 44.5179 7.27C39.8823 4.52 33.6482 3 26.9745 3Z" fill="#424D68"/>
</g>
<defs>
<clipPath id="clip0_306_4886">
<rect width="53.9489" height="32" fill="white"/>
</clipPath>
</defs>
</svg>
