<svg width="167" height="67" viewBox="0 0 167 67" fill="none" xmlns="http://www.w3.org/2000/svg">
<g clip-path="url(#clip0_459_10022)">
<rect width="167" height="67" rx="12" fill="#FCFDFD"/>
<g clip-path="url(#clip1_459_10022)">
<path d="M33.579 15.8287C33.4713 16.3478 33.2194 16.7928 32.8744 17.0733C32.5295 17.3537 32.1175 17.4486 31.722 17.3387C31.172 16.3987 31.933 13.9173 31.933 13.9173C31.4635 14.8417 31.1746 15.9077 31.0925 17.0187C30.728 16.763 30.4517 16.3294 30.3212 15.8085C30.1908 15.2877 30.2163 14.7197 30.3925 14.2233C31.138 11.526 33.353 10 33.353 10C33.9067 11.857 33.9861 13.9055 33.579 15.8287ZM30.762 26.5033C31.362 27.67 31.4275 28.97 30.6665 29.9533C29.624 30.064 28.308 27.4353 28.308 27.4353C28.6729 28.6773 29.2616 29.7805 30.022 30.6473C29.1355 31.386 28.13 30.918 27.493 29.7413C26.0805 27.248 26.4725 24.246 26.867 22.7413C27.0808 23.2575 27.3735 23.7082 27.7261 24.0642C28.0787 24.4202 28.4834 24.6736 28.914 24.808C29.6667 25.0474 30.3259 25.6508 30.764 26.5013L30.762 26.5033ZM30.1815 23.6847C31.2265 23.2527 31.573 22.1107 31.4815 20.6973C31.3733 19.6868 30.9994 18.7604 30.4265 18.0833C30.0866 17.6865 29.812 17.1999 29.6203 16.6544C29.4286 16.1089 29.3237 15.5163 29.3125 14.914C28.4625 15.9807 27.085 18.36 27.471 21.4473C27.6395 22.88 28.371 23.92 29.408 23.8593C29.011 22.63 28.8601 21.2844 28.97 19.954C28.97 19.954 29.2285 23.1193 30.183 23.6807L30.1815 23.6847ZM32.385 31.618C33.3465 32.1273 33.9655 33.138 33.735 34.5767C32.943 35.5 30.767 34.31 30.767 34.31C31.5866 35.0515 32.5316 35.5097 33.517 35.6433C33.112 36.9307 32.074 37.31 31.067 36.8433C28.8705 35.808 27.964 33.0673 27.611 31.536C28.0019 31.8011 28.4314 31.9499 28.8697 31.972C29.308 31.9941 29.7447 31.889 30.1495 31.664C30.863 31.2779 31.6588 31.2603 32.3815 31.6147L32.385 31.618ZM37.489 38.8347C37.4035 37.368 36.629 36.64 35.5825 36.484C34.8217 36.4137 34.0678 36.7157 33.462 37.3333C33.1211 37.6884 32.7269 37.9417 32.3063 38.0763C31.8856 38.2109 31.4481 38.2235 31.0235 38.1133C31.6395 39.4467 33.0735 41.7833 35.3775 41.99C36.43 42.0947 37.356 41.366 37.5 39.9593C36.5217 40.1939 35.5145 40.0876 34.576 39.6507C34.576 39.6507 36.906 39.9707 37.489 38.8347Z" fill="#838B9E"/>
</g>
<path d="M55.6797 32.6113H52.9727V37H49.8008V32.6113H40.709V30.1777L49.8418 16.957H52.9727V29.9453H55.6797V32.6113ZM49.8008 29.9453V24.9824C49.8008 24.5723 49.8053 24.1576 49.8145 23.7383C49.8327 23.3099 49.8509 22.8997 49.8691 22.5078C49.8874 22.1159 49.9056 21.7559 49.9238 21.4277C49.9421 21.0905 49.9557 20.8125 49.9648 20.5938H49.8555C49.6823 20.9583 49.4909 21.332 49.2812 21.7148C49.0716 22.0885 48.8483 22.4531 48.6113 22.8086L43.6895 29.9453H49.8008ZM61.7227 33.7461L61.9141 34.0605C61.75 34.7168 61.5404 35.4232 61.2852 36.1797C61.0299 36.9362 60.752 37.6927 60.4512 38.4492C60.1504 39.2148 59.8451 39.9349 59.5352 40.6094H57.1836C57.375 39.8711 57.5573 39.0964 57.7305 38.2852C57.9128 37.4831 58.0768 36.6901 58.2227 35.9062C58.3776 35.1133 58.5007 34.3932 58.5918 33.7461H61.7227ZM78.5801 25.5293C78.5801 26.7142 78.4935 27.8763 78.3203 29.0156C78.1562 30.1549 77.8646 31.2214 77.4453 32.2148C77.0352 33.2083 76.4655 34.0879 75.7363 34.8535C75.0163 35.61 74.1048 36.2025 73.002 36.6309C71.8991 37.0592 70.5684 37.2734 69.0098 37.2734C68.6178 37.2734 68.1621 37.2507 67.6426 37.2051C67.1322 37.1686 66.7129 37.1139 66.3848 37.041V34.3613C66.7311 34.4616 67.1185 34.5436 67.5469 34.6074C67.9844 34.6621 68.4173 34.6895 68.8457 34.6895C70.5319 34.6895 71.8444 34.375 72.7832 33.7461C73.7311 33.1172 74.401 32.2513 74.793 31.1484C75.194 30.0456 75.4219 28.7923 75.4766 27.3887H75.3125C75.0482 27.8262 74.7155 28.2272 74.3145 28.5918C73.9134 28.9473 73.4167 29.2344 72.8242 29.4531C72.2318 29.6628 71.5117 29.7676 70.6641 29.7676C69.5156 29.7676 68.513 29.526 67.6562 29.043C66.8086 28.5599 66.1478 27.8581 65.6738 26.9375C65.209 26.0078 64.9766 24.8913 64.9766 23.5879C64.9766 22.1751 65.2454 20.9583 65.7832 19.9375C66.321 18.9167 67.082 18.1328 68.0664 17.5859C69.0508 17.0299 70.2083 16.752 71.5391 16.752C72.5417 16.752 73.4668 16.9342 74.3145 17.2988C75.1712 17.6543 75.9186 18.2012 76.5566 18.9395C77.1947 19.6686 77.6914 20.5846 78.0469 21.6875C78.4023 22.7812 78.5801 24.0618 78.5801 25.5293ZM71.5801 19.4043C70.5684 19.4043 69.7435 19.7461 69.1055 20.4297C68.4674 21.1042 68.1484 22.1432 68.1484 23.5469C68.1484 24.6862 68.4219 25.5885 68.9688 26.2539C69.5156 26.9193 70.3542 27.252 71.4844 27.252C72.2682 27.252 72.9427 27.0924 73.5078 26.7734C74.082 26.4453 74.5241 26.0306 74.834 25.5293C75.153 25.028 75.3125 24.5176 75.3125 23.998C75.3125 23.4603 75.235 22.9225 75.0801 22.3848C74.9342 21.847 74.7064 21.3548 74.3965 20.9082C74.0866 20.4616 73.6947 20.1016 73.2207 19.8281C72.7559 19.5456 72.209 19.4043 71.5801 19.4043Z" fill="#313E48"/>
<g clip-path="url(#clip2_459_10022)">
<path d="M86.421 15.8287C86.5287 16.3478 86.7806 16.7928 87.1256 17.0733C87.4705 17.3537 87.8825 17.4486 88.278 17.3387C88.828 16.3987 88.067 13.9173 88.067 13.9173C88.5365 14.8417 88.8254 15.9077 88.9075 17.0187C89.272 16.763 89.5483 16.3294 89.6788 15.8085C89.8092 15.2877 89.7837 14.7197 89.6075 14.2233C88.862 11.526 86.647 10 86.647 10C86.0933 11.857 86.0139 13.9055 86.421 15.8287ZM89.238 26.5033C88.638 27.67 88.5725 28.97 89.3335 29.9533C90.376 30.064 91.692 27.4353 91.692 27.4353C91.3271 28.6773 90.7384 29.7805 89.978 30.6473C90.8645 31.386 91.87 30.918 92.507 29.7413C93.9195 27.248 93.5275 24.246 93.133 22.7413C92.9192 23.2575 92.6265 23.7082 92.2739 24.0642C91.9213 24.4202 91.5166 24.6736 91.086 24.808C90.3333 25.0474 89.6741 25.6508 89.236 26.5013L89.238 26.5033ZM89.8185 23.6847C88.7735 23.2527 88.427 22.1107 88.5185 20.6973C88.6267 19.6868 89.0006 18.7604 89.5735 18.0833C89.9134 17.6865 90.188 17.1999 90.3797 16.6544C90.5714 16.1089 90.6763 15.5163 90.6875 14.914C91.5375 15.9807 92.915 18.36 92.529 21.4473C92.3605 22.88 91.629 23.92 90.592 23.8593C90.989 22.63 91.1399 21.2844 91.03 19.954C91.03 19.954 90.7715 23.1193 89.817 23.6807L89.8185 23.6847ZM87.615 31.618C86.6535 32.1273 86.0345 33.138 86.265 34.5767C87.057 35.5 89.233 34.31 89.233 34.31C88.4134 35.0515 87.4684 35.5097 86.483 35.6433C86.888 36.9307 87.926 37.31 88.933 36.8433C91.1295 35.808 92.036 33.0673 92.389 31.536C91.9981 31.8011 91.5686 31.9499 91.1303 31.972C90.692 31.9941 90.2553 31.889 89.8505 31.664C89.137 31.2779 88.3412 31.2603 87.6185 31.6147L87.615 31.618ZM82.511 38.8347C82.5965 37.368 83.371 36.64 84.4175 36.484C85.1783 36.4137 85.9322 36.7157 86.538 37.3333C86.8789 37.6884 87.2731 37.9417 87.6937 38.0763C88.1144 38.2109 88.5519 38.2235 88.9765 38.1133C88.3605 39.4467 86.9265 41.7833 84.6225 41.99C83.57 42.0947 82.644 41.366 82.5 39.9593C83.4783 40.1939 84.4855 40.0876 85.424 39.6507C85.424 39.6507 83.094 39.9707 82.511 38.8347Z" fill="#838B9E"/>
</g>
<path d="M18.9111 58H17.4448L15.4683 54.7827L13.481 58H12.1006L14.7109 53.9287L12.2778 50.1475H13.7012L15.5273 53.123L17.3428 50.1475H18.7231L16.2793 53.9663L18.9111 58ZM26.9409 54.063C26.9409 54.6681 26.8639 55.2196 26.71 55.7173C26.5596 56.2114 26.3322 56.6375 26.0278 56.9956C25.7235 57.3501 25.3421 57.624 24.8838 57.8174C24.4255 58.0107 23.8883 58.1074 23.2725 58.1074C22.6458 58.1074 22.1016 58.0107 21.6396 57.8174C21.1813 57.624 20.8 57.3483 20.4956 56.9902C20.1948 56.6322 19.9692 56.2043 19.8188 55.7065C19.6685 55.2088 19.5933 54.6574 19.5933 54.0522C19.5933 53.243 19.7257 52.5376 19.9907 51.936C20.2593 51.3309 20.6657 50.8618 21.21 50.5288C21.7578 50.1922 22.4489 50.0239 23.2832 50.0239C24.0996 50.0239 24.7782 50.1904 25.3188 50.5234C25.8595 50.8564 26.2642 51.3255 26.5327 51.9307C26.8049 52.5322 26.9409 53.243 26.9409 54.063ZM20.9468 54.063C20.9468 54.6681 21.0291 55.1927 21.1938 55.6367C21.3586 56.0771 21.611 56.4173 21.9512 56.6572C22.2949 56.8936 22.7354 57.0117 23.2725 57.0117C23.8132 57.0117 24.2536 56.8936 24.5938 56.6572C24.9339 56.4173 25.1846 56.0771 25.3457 55.6367C25.5068 55.1927 25.5874 54.6681 25.5874 54.063C25.5874 53.1427 25.403 52.423 25.0342 51.9038C24.6689 51.381 24.0853 51.1196 23.2832 51.1196C22.7461 51.1196 22.3039 51.2378 21.9565 51.4741C21.6128 51.7104 21.3586 52.0488 21.1938 52.4893C21.0291 52.9261 20.9468 53.4507 20.9468 54.063ZM30.9102 50.1475C31.9235 50.1475 32.6629 50.3551 33.1284 50.7705C33.5939 51.1859 33.8267 51.7677 33.8267 52.5161C33.8267 52.8563 33.7729 53.1803 33.6655 53.4883C33.5617 53.7926 33.3898 54.063 33.1499 54.2993C32.91 54.5321 32.5931 54.7165 32.1992 54.8525C31.8089 54.9886 31.3273 55.0566 30.7544 55.0566H29.9165V58H28.6274V50.1475H30.9102ZM30.8242 51.2163H29.9165V53.9824H30.6201C31.0247 53.9824 31.3685 53.9359 31.6514 53.8428C31.9342 53.7461 32.1491 53.5939 32.2959 53.3862C32.4427 53.1785 32.5161 52.9046 32.5161 52.5645C32.5161 52.1097 32.3783 51.7713 32.1025 51.5493C31.8304 51.3273 31.4043 51.2163 30.8242 51.2163ZM42.3667 54.063C42.3667 54.6681 42.2897 55.2196 42.1357 55.7173C41.9854 56.2114 41.758 56.6375 41.4536 56.9956C41.1493 57.3501 40.7679 57.624 40.3096 57.8174C39.8512 58.0107 39.3141 58.1074 38.6982 58.1074C38.0716 58.1074 37.5273 58.0107 37.0654 57.8174C36.6071 57.624 36.2257 57.3483 35.9214 56.9902C35.6206 56.6322 35.395 56.2043 35.2446 55.7065C35.0942 55.2088 35.019 54.6574 35.019 54.0522C35.019 53.243 35.1515 52.5376 35.4165 51.936C35.6851 51.3309 36.0915 50.8618 36.6357 50.5288C37.1836 50.1922 37.8747 50.0239 38.709 50.0239C39.5254 50.0239 40.2039 50.1904 40.7446 50.5234C41.2853 50.8564 41.6899 51.3255 41.9585 51.9307C42.2306 52.5322 42.3667 53.243 42.3667 54.063ZM36.3726 54.063C36.3726 54.6681 36.4549 55.1927 36.6196 55.6367C36.7843 56.0771 37.0368 56.4173 37.377 56.6572C37.7207 56.8936 38.1611 57.0117 38.6982 57.0117C39.2389 57.0117 39.6794 56.8936 40.0195 56.6572C40.3597 56.4173 40.6104 56.0771 40.7715 55.6367C40.9326 55.1927 41.0132 54.6681 41.0132 54.063C41.0132 53.1427 40.8288 52.423 40.46 51.9038C40.0947 51.381 39.5111 51.1196 38.709 51.1196C38.1719 51.1196 37.7297 51.2378 37.3823 51.4741C37.0386 51.7104 36.7843 52.0488 36.6196 52.4893C36.4549 52.9261 36.3726 53.4507 36.3726 54.063ZM53.5869 58H44.0532V50.1475H45.3423V56.8989H48.1729V50.1475H49.4673V56.8989H52.2979V50.1475H53.5869V58ZM60.1128 58H55.6655V50.1475H60.1128V51.2324H56.9546V53.3647H59.9141V54.4443H56.9546V56.9097H60.1128V58ZM66.2573 58H61.8101V50.1475H66.2573V51.2324H63.0991V53.3647H66.0586V54.4443H63.0991V56.9097H66.2573V58ZM74.2012 58L71.9399 51.4419H71.8916C71.9023 51.5887 71.9149 51.7892 71.9292 52.0435C71.9435 52.2977 71.9561 52.5698 71.9668 52.8599C71.9775 53.1499 71.9829 53.4274 71.9829 53.6924V58H70.812V50.1475H72.6221L74.7974 56.4155H74.8296L77.0801 50.1475H78.8848V58H77.6548V53.6279C77.6548 53.388 77.6584 53.1284 77.6655 52.8491C77.6763 52.5698 77.687 52.3049 77.6978 52.0542C77.7121 51.8035 77.7228 51.603 77.73 51.4526H77.687L75.3398 58H74.2012ZM85.3999 58H80.9526V50.1475H85.3999V51.2324H82.2417V53.3647H85.2012V54.4443H82.2417V56.9097H85.3999V58ZM90.4434 51.1304C90.0674 51.1304 89.7308 51.1984 89.4336 51.3345C89.14 51.4705 88.8911 51.6675 88.687 51.9253C88.4829 52.1795 88.3271 52.4893 88.2197 52.8545C88.1123 53.2161 88.0586 53.6243 88.0586 54.0791C88.0586 54.6878 88.1445 55.2124 88.3164 55.6528C88.4883 56.0897 88.7497 56.4263 89.1006 56.6626C89.4515 56.8953 89.8955 57.0117 90.4326 57.0117C90.7656 57.0117 91.0897 56.9795 91.4048 56.915C91.7199 56.8506 92.0457 56.7629 92.3823 56.6519V57.7476C92.0636 57.8729 91.7414 57.9642 91.4155 58.0215C91.0897 58.0788 90.7137 58.1074 90.2876 58.1074C89.4855 58.1074 88.8195 57.9409 88.2896 57.6079C87.7632 57.2749 87.3693 56.8058 87.1079 56.2007C86.8501 55.5955 86.7212 54.8866 86.7212 54.0737C86.7212 53.4793 86.8035 52.9351 86.9683 52.4409C87.133 51.9468 87.3729 51.5207 87.688 51.1626C88.0031 50.8009 88.3916 50.5234 88.8535 50.3301C89.319 50.1331 89.8507 50.0347 90.4487 50.0347C90.8426 50.0347 91.2293 50.0794 91.6089 50.1689C91.992 50.2549 92.3465 50.3784 92.6724 50.5396L92.2212 51.603C91.9491 51.4741 91.6644 51.3631 91.3672 51.27C91.07 51.1769 90.762 51.1304 90.4434 51.1304ZM96.792 58H95.4976V51.2432H93.1987V50.1475H99.0854V51.2432H96.792V58ZM107.26 54.063C107.26 54.6681 107.183 55.2196 107.029 55.7173C106.879 56.2114 106.652 56.6375 106.347 56.9956C106.043 57.3501 105.661 57.624 105.203 57.8174C104.745 58.0107 104.208 58.1074 103.592 58.1074C102.965 58.1074 102.421 58.0107 101.959 57.8174C101.501 57.624 101.119 57.3483 100.815 56.9902C100.514 56.6322 100.289 56.2043 100.138 55.7065C99.9878 55.2088 99.9126 54.6574 99.9126 54.0522C99.9126 53.243 100.045 52.5376 100.31 51.936C100.579 51.3309 100.985 50.8618 101.529 50.5288C102.077 50.1922 102.768 50.0239 103.603 50.0239C104.419 50.0239 105.097 50.1904 105.638 50.5234C106.179 50.8564 106.583 51.3255 106.852 51.9307C107.124 52.5322 107.26 53.243 107.26 54.063ZM101.266 54.063C101.266 54.6681 101.348 55.1927 101.513 55.6367C101.678 56.0771 101.93 56.4173 102.271 56.6572C102.614 56.8936 103.055 57.0117 103.592 57.0117C104.132 57.0117 104.573 56.8936 104.913 56.6572C105.253 56.4173 105.504 56.0771 105.665 55.6367C105.826 55.1927 105.907 54.6681 105.907 54.063C105.907 53.1427 105.722 52.423 105.354 51.9038C104.988 51.381 104.405 51.1196 103.603 51.1196C103.065 51.1196 102.623 51.2378 102.276 51.4741C101.932 51.7104 101.678 52.0488 101.513 52.4893C101.348 52.9261 101.266 53.4507 101.266 54.063Z" fill="#838B9E"/>
<path d="M173.155 21.4998C173.155 36.1353 161.291 47.9996 146.655 47.9996C132.02 47.9996 120.155 36.1353 120.155 21.4998C120.155 6.86437 132.02 -5 146.655 -5C161.291 -5 173.155 6.86437 173.155 21.4998Z" fill="#E10A1D"/>
<path d="M155 35.8599H149.218V8.11209H146.636C141.909 8.11209 139.436 10.4038 139.436 13.8238C139.436 17.7022 141.145 19.5003 144.673 21.7921L147.582 23.696L139.218 35.8599H133L140.527 25.0005C136.2 22.0036 133.764 19.0772 133.764 14.1412C133.764 7.97106 138.2 3.77539 146.6 3.77539H154.964V35.8599H155Z" fill="white"/>
</g>
<defs>
<clipPath id="clip0_459_10022">
<rect width="167" height="67" rx="12" fill="white"/>
</clipPath>
<clipPath id="clip1_459_10022">
<rect width="12" height="32" fill="white" transform="matrix(-1 0 0 1 38 10)"/>
</clipPath>
<clipPath id="clip2_459_10022">
<rect width="12" height="32" fill="white" transform="translate(82 10)"/>
</clipPath>
</defs>
</svg>
