<svg width="200" height="96" viewBox="0 0 200 96" fill="none" xmlns="http://www.w3.org/2000/svg">
<g clip-path="url(#clip0_334_5281)">
<rect width="200" height="96" rx="12" fill="#FCFDFD"/>
<g clip-path="url(#clip1_334_5281)">
<path d="M27.3685 20.743C27.2069 21.5217 26.829 22.1892 26.3117 22.6099C25.7943 23.0306 25.1762 23.1729 24.583 23.008C23.758 21.598 24.8995 17.876 24.8995 17.876C24.1953 19.2625 23.7619 20.8616 23.6388 22.528C23.092 22.1445 22.6775 21.4942 22.4818 20.7128C22.2862 19.9315 22.3245 19.0796 22.5887 18.335C23.707 14.289 27.0295 12 27.0295 12C27.86 14.7855 27.9792 17.8582 27.3685 20.743ZM23.143 36.755C24.043 38.505 24.1412 40.455 22.9998 41.93C21.436 42.096 19.462 38.153 19.462 38.153C20.0094 40.016 20.8924 41.6707 22.033 42.971C20.7032 44.079 19.195 43.377 18.2395 41.612C16.1208 37.872 16.7087 33.369 17.3005 31.112C17.6212 31.8863 18.0602 32.5623 18.5891 33.0963C19.118 33.6302 19.7251 34.0103 20.371 34.212C21.5 34.5711 22.4889 35.4762 23.146 36.752L23.143 36.755ZM22.2723 32.527C23.8398 31.879 24.3595 30.166 24.2222 28.046C24.06 26.5302 23.4991 25.1406 22.6397 24.125C22.1298 23.5297 21.7181 22.7999 21.4304 21.9816C21.1428 21.1633 20.9856 20.2744 20.9688 19.371C19.6938 20.971 17.6275 24.54 18.2065 29.171C18.4592 31.32 19.5565 32.88 21.112 32.789C20.5165 30.945 20.2901 28.9266 20.455 26.931C20.455 26.931 20.8428 31.679 22.2745 32.521L22.2723 32.527ZM25.5775 44.427C27.0198 45.191 27.9482 46.707 27.6025 48.865C26.4145 50.25 23.1505 48.465 23.1505 48.465C24.3799 49.5772 25.7974 50.2645 27.2755 50.465C26.668 52.396 25.111 52.965 23.6005 52.265C20.3057 50.712 18.946 46.601 18.4165 44.304C19.0029 44.7017 19.6471 44.9248 20.3045 44.958C20.962 44.9911 21.617 44.8335 22.2242 44.496C23.2945 43.9169 24.4882 43.8905 25.5722 44.422L25.5775 44.427ZM33.2335 55.252C33.1053 53.052 31.9435 51.96 30.3737 51.726C29.2326 51.6206 28.1017 52.0736 27.193 53C26.6816 53.5326 26.0904 53.9126 25.4594 54.1145C24.8284 54.3163 24.1722 54.3352 23.5352 54.17C24.4592 56.17 26.6103 59.675 30.0663 59.985C31.645 60.142 33.034 59.049 33.25 56.939C31.7825 57.2908 30.2717 57.1314 28.864 56.476C28.864 56.476 32.359 56.956 33.2335 55.252Z" fill="#838B9E"/>
</g>
<path d="M58.3281 45.7305H54.4609V52H49.9297V45.7305H36.9414V42.2539L49.9883 23.3672H54.4609V41.9219H58.3281V45.7305ZM49.9297 41.9219V34.832C49.9297 34.2461 49.9362 33.6536 49.9492 33.0547C49.9753 32.4427 50.0013 31.8568 50.0273 31.2969C50.0534 30.737 50.0794 30.2227 50.1055 29.7539C50.1315 29.2721 50.151 28.875 50.1641 28.5625H50.0078C49.7604 29.0833 49.487 29.6172 49.1875 30.1641C48.888 30.6979 48.569 31.2188 48.2305 31.7266L41.1992 41.9219H49.9297ZM66.9609 47.3516L67.2344 47.8008C67 48.7383 66.7005 49.7474 66.3359 50.8281C65.9714 51.9089 65.5742 52.9896 65.1445 54.0703C64.7148 55.1641 64.2786 56.1927 63.8359 57.1562H60.4766C60.75 56.1016 61.0104 54.9948 61.2578 53.8359C61.5182 52.6901 61.7526 51.5573 61.9609 50.4375C62.1823 49.3047 62.3581 48.276 62.4883 47.3516H66.9609ZM91.043 35.6133C91.043 37.306 90.9193 38.9661 90.6719 40.5938C90.4375 42.2214 90.0208 43.7448 89.4219 45.1641C88.8359 46.5833 88.0221 47.8398 86.9805 48.9336C85.9518 50.0143 84.6497 50.8607 83.0742 51.4727C81.4987 52.0846 79.5977 52.3906 77.3711 52.3906C76.8112 52.3906 76.1602 52.3581 75.418 52.293C74.6888 52.2409 74.0898 52.1628 73.6211 52.0586V48.2305C74.1159 48.3737 74.6693 48.4909 75.2812 48.582C75.9062 48.6602 76.5247 48.6992 77.1367 48.6992C79.5456 48.6992 81.4206 48.25 82.7617 47.3516C84.1159 46.4531 85.0729 45.2161 85.6328 43.6406C86.2057 42.0651 86.5312 40.2747 86.6094 38.2695H86.375C85.9974 38.8945 85.5221 39.4674 84.9492 39.9883C84.3763 40.4961 83.6667 40.9062 82.8203 41.2188C81.974 41.5182 80.9453 41.668 79.7344 41.668C78.0938 41.668 76.6615 41.3229 75.4375 40.6328C74.2266 39.9427 73.2826 38.9401 72.6055 37.625C71.9414 36.2969 71.6094 34.7018 71.6094 32.8398C71.6094 30.8216 71.9935 29.0833 72.7617 27.625C73.5299 26.1667 74.6172 25.0469 76.0234 24.2656C77.4297 23.4714 79.0833 23.0742 80.9844 23.0742C82.4167 23.0742 83.7383 23.3346 84.9492 23.8555C86.1732 24.3633 87.2409 25.1445 88.1523 26.1992C89.0638 27.2409 89.7734 28.5495 90.2812 30.125C90.7891 31.6875 91.043 33.5169 91.043 35.6133ZM81.043 26.8633C79.5977 26.8633 78.4193 27.3516 77.5078 28.3281C76.5964 29.2917 76.1406 30.776 76.1406 32.7812C76.1406 34.4089 76.5312 35.6979 77.3125 36.6484C78.0938 37.599 79.2917 38.0742 80.9062 38.0742C82.026 38.0742 82.9896 37.8464 83.7969 37.3906C84.6172 36.9219 85.2487 36.3294 85.6914 35.6133C86.1471 34.8971 86.375 34.168 86.375 33.4258C86.375 32.6576 86.2643 31.8893 86.043 31.1211C85.8346 30.3529 85.5091 29.6497 85.0664 29.0117C84.6237 28.3737 84.0638 27.8594 83.3867 27.4688C82.7227 27.0651 81.9414 26.8633 81.043 26.8633Z" fill="#313E48"/>
<g clip-path="url(#clip2_334_5281)">
<path d="M101.632 20.743C101.793 21.5217 102.171 22.1892 102.688 22.6099C103.206 23.0306 103.824 23.1729 104.417 23.008C105.242 21.598 104.101 17.876 104.101 17.876C104.805 19.2625 105.238 20.8616 105.361 22.528C105.908 22.1445 106.323 21.4942 106.518 20.7128C106.714 19.9315 106.676 19.0796 106.411 18.335C105.293 14.289 101.97 12 101.97 12C101.14 14.7855 101.021 17.8582 101.632 20.743ZM105.857 36.755C104.957 38.505 104.859 40.455 106 41.93C107.564 42.096 109.538 38.153 109.538 38.153C108.991 40.016 108.108 41.6707 106.967 42.971C108.297 44.079 109.805 43.377 110.76 41.612C112.879 37.872 112.291 33.369 111.7 31.112C111.379 31.8863 110.94 32.5623 110.411 33.0963C109.882 33.6302 109.275 34.0103 108.629 34.212C107.5 34.5711 106.511 35.4762 105.854 36.752L105.857 36.755ZM106.728 32.527C105.16 31.879 104.641 30.166 104.778 28.046C104.94 26.5302 105.501 25.1406 106.36 24.125C106.87 23.5297 107.282 22.7999 107.57 21.9816C107.857 21.1633 108.014 20.2744 108.031 19.371C109.306 20.971 111.373 24.54 110.794 29.171C110.541 31.32 109.443 32.88 107.888 32.789C108.484 30.945 108.71 28.9266 108.545 26.931C108.545 26.931 108.157 31.679 106.726 32.521L106.728 32.527ZM103.422 44.427C101.98 45.191 101.052 46.707 101.398 48.865C102.586 50.25 105.849 48.465 105.849 48.465C104.62 49.5772 103.203 50.2645 101.725 50.465C102.332 52.396 103.889 52.965 105.399 52.265C108.694 50.712 110.054 46.601 110.583 44.304C109.997 44.7017 109.353 44.9248 108.695 44.958C108.038 44.9911 107.383 44.8335 106.776 44.496C105.706 43.9169 104.512 43.8905 103.428 44.422L103.422 44.427ZM95.7665 55.252C95.8947 53.052 97.0565 51.96 98.6263 51.726C99.7674 51.6206 100.898 52.0736 101.807 53C102.318 53.5326 102.91 53.9126 103.541 54.1145C104.172 54.3163 104.828 54.3352 105.465 54.17C104.541 56.17 102.39 59.675 98.9337 59.985C97.355 60.142 95.966 59.049 95.75 56.939C97.2175 57.2908 98.7283 57.1314 100.136 56.476C100.136 56.476 96.641 56.956 95.7665 55.252Z" fill="#838B9E"/>
</g>
<path d="M24.0679 79H22.335L19.999 75.1978L17.6504 79H16.019L19.104 74.1885L16.2285 69.7197H17.9106L20.0688 73.2363L22.2144 69.7197H23.8457L20.9575 74.2329L24.0679 79ZM33.5576 74.3472C33.5576 75.0623 33.4666 75.714 33.2847 76.3022C33.1069 76.8862 32.8382 77.3898 32.4785 77.813C32.1188 78.2319 31.6681 78.5557 31.1265 78.7842C30.5848 79.0127 29.95 79.127 29.2222 79.127C28.4816 79.127 27.8384 79.0127 27.2925 78.7842C26.7508 78.5557 26.3001 78.2298 25.9404 77.8066C25.585 77.3835 25.3184 76.8778 25.1406 76.2896C24.9629 75.7013 24.874 75.0496 24.874 74.3345C24.874 73.3781 25.0306 72.5444 25.3438 71.8335C25.6611 71.1183 26.1414 70.564 26.7847 70.1704C27.4321 69.7726 28.2489 69.5737 29.2349 69.5737C30.1997 69.5737 31.0016 69.7705 31.6406 70.1641C32.2796 70.5576 32.7578 71.112 33.0752 71.8271C33.3968 72.5381 33.5576 73.3781 33.5576 74.3472ZM26.4736 74.3472C26.4736 75.0623 26.571 75.6823 26.7656 76.207C26.9603 76.7275 27.2586 77.1296 27.6606 77.4131C28.0669 77.6924 28.5874 77.832 29.2222 77.832C29.8612 77.832 30.3817 77.6924 30.7837 77.4131C31.1857 77.1296 31.4819 76.7275 31.6724 76.207C31.8628 75.6823 31.958 75.0623 31.958 74.3472C31.958 73.2596 31.7401 72.409 31.3042 71.7954C30.8726 71.1776 30.1828 70.8687 29.2349 70.8687C28.6001 70.8687 28.0775 71.0083 27.667 71.2876C27.2607 71.5669 26.9603 71.9668 26.7656 72.4873C26.571 73.0036 26.4736 73.6235 26.4736 74.3472ZM38.2485 69.7197C39.4461 69.7197 40.32 69.9652 40.8701 70.4561C41.4202 70.9469 41.6953 71.6346 41.6953 72.519C41.6953 72.9211 41.6318 73.304 41.5049 73.668C41.3822 74.0277 41.179 74.3472 40.8955 74.6265C40.612 74.9015 40.2375 75.1195 39.772 75.2803C39.3107 75.4411 38.7415 75.5215 38.0645 75.5215H37.0742V79H35.5508V69.7197H38.2485ZM38.147 70.9829H37.0742V74.252H37.9058C38.384 74.252 38.7902 74.1969 39.1245 74.0869C39.4588 73.9727 39.7127 73.7928 39.8862 73.5474C40.0597 73.3019 40.1465 72.9782 40.1465 72.5762C40.1465 72.0387 39.9836 71.6388 39.6577 71.3765C39.3361 71.1141 38.8325 70.9829 38.147 70.9829ZM51.7881 74.3472C51.7881 75.0623 51.6971 75.714 51.5151 76.3022C51.3374 76.8862 51.0687 77.3898 50.709 77.813C50.3493 78.2319 49.8986 78.5557 49.3569 78.7842C48.8153 79.0127 48.1805 79.127 47.4526 79.127C46.7121 79.127 46.0688 79.0127 45.5229 78.7842C44.9813 78.5557 44.5306 78.2298 44.1709 77.8066C43.8154 77.3835 43.5488 76.8778 43.3711 76.2896C43.1934 75.7013 43.1045 75.0496 43.1045 74.3345C43.1045 73.3781 43.2611 72.5444 43.5742 71.8335C43.8916 71.1183 44.3719 70.564 45.0151 70.1704C45.6626 69.7726 46.4793 69.5737 47.4653 69.5737C48.4302 69.5737 49.2321 69.7705 49.8711 70.1641C50.5101 70.5576 50.9883 71.112 51.3057 71.8271C51.6273 72.5381 51.7881 73.3781 51.7881 74.3472ZM44.7041 74.3472C44.7041 75.0623 44.8014 75.6823 44.9961 76.207C45.1908 76.7275 45.4891 77.1296 45.8911 77.4131C46.2974 77.6924 46.8179 77.832 47.4526 77.832C48.0916 77.832 48.6121 77.6924 49.0142 77.4131C49.4162 77.1296 49.7124 76.7275 49.9028 76.207C50.0933 75.6823 50.1885 75.0623 50.1885 74.3472C50.1885 73.2596 49.9705 72.409 49.5347 71.7954C49.103 71.1776 48.4132 70.8687 47.4653 70.8687C46.8306 70.8687 46.3079 71.0083 45.8975 71.2876C45.4912 71.5669 45.1908 71.9668 44.9961 72.4873C44.8014 73.0036 44.7041 73.6235 44.7041 74.3472ZM65.0483 79H53.7812V69.7197H55.3047V77.6987H58.6499V69.7197H60.1797V77.6987H63.5249V69.7197H65.0483V79ZM72.7607 79H67.5049V69.7197H72.7607V71.002H69.0283V73.522H72.5259V74.7979H69.0283V77.7114H72.7607V79ZM80.0225 79H74.7666V69.7197H80.0225V71.002H76.29V73.522H79.7876V74.7979H76.29V77.7114H80.0225V79ZM89.4106 79L86.7383 71.2495H86.6812C86.6938 71.423 86.7087 71.66 86.7256 71.9604C86.7425 72.2609 86.7573 72.5825 86.77 72.9253C86.7827 73.2681 86.7891 73.596 86.7891 73.9092V79H85.4053V69.7197H87.5444L90.1152 77.1274H90.1533L92.813 69.7197H94.9458V79H93.4922V73.833C93.4922 73.5495 93.4964 73.2427 93.5049 72.9126C93.5176 72.5825 93.5303 72.2694 93.543 71.9731C93.5599 71.6769 93.5726 71.4399 93.5811 71.2622H93.5303L90.7563 79H89.4106ZM102.646 79H97.3896V69.7197H102.646V71.002H98.9131V73.522H102.411V74.7979H98.9131V77.7114H102.646V79ZM108.606 70.8813C108.162 70.8813 107.764 70.9618 107.413 71.1226C107.066 71.2834 106.771 71.5161 106.53 71.8208C106.289 72.1213 106.105 72.4873 105.978 72.9189C105.851 73.3464 105.788 73.8288 105.788 74.3662C105.788 75.0856 105.889 75.7056 106.092 76.2261C106.295 76.7424 106.604 77.1401 107.019 77.4194C107.434 77.6945 107.958 77.832 108.593 77.832C108.987 77.832 109.37 77.7939 109.742 77.7178C110.115 77.6416 110.5 77.5379 110.897 77.4067V78.7017C110.521 78.8498 110.14 78.9577 109.755 79.0254C109.37 79.0931 108.925 79.127 108.422 79.127C107.474 79.127 106.687 78.9302 106.061 78.5366C105.438 78.1431 104.973 77.5887 104.664 76.8735C104.359 76.1584 104.207 75.3205 104.207 74.3599C104.207 73.6574 104.304 73.0142 104.499 72.4302C104.694 71.8462 104.977 71.3426 105.35 70.9194C105.722 70.492 106.181 70.1641 106.727 69.9355C107.277 69.7028 107.906 69.5864 108.612 69.5864C109.078 69.5864 109.535 69.6393 109.983 69.7451C110.436 69.8467 110.855 69.9927 111.24 70.1831L110.707 71.4399C110.385 71.2876 110.049 71.1564 109.698 71.0464C109.347 70.9364 108.983 70.8813 108.606 70.8813ZM116.109 79H114.579V71.0146H111.862V69.7197H118.819V71.0146H116.109V79ZM128.48 74.3472C128.48 75.0623 128.389 75.714 128.208 76.3022C128.03 76.8862 127.761 77.3898 127.401 77.813C127.042 78.2319 126.591 78.5557 126.049 78.7842C125.508 79.0127 124.873 79.127 124.145 79.127C123.404 79.127 122.761 79.0127 122.215 78.7842C121.674 78.5557 121.223 78.2298 120.863 77.8066C120.508 77.3835 120.241 76.8778 120.063 76.2896C119.886 75.7013 119.797 75.0496 119.797 74.3345C119.797 73.3781 119.953 72.5444 120.267 71.8335C120.584 71.1183 121.064 70.564 121.708 70.1704C122.355 69.7726 123.172 69.5737 124.158 69.5737C125.123 69.5737 125.924 69.7705 126.563 70.1641C127.202 70.5576 127.681 71.112 127.998 71.8271C128.32 72.5381 128.48 73.3781 128.48 74.3472ZM121.396 74.3472C121.396 75.0623 121.494 75.6823 121.688 76.207C121.883 76.7275 122.181 77.1296 122.583 77.4131C122.99 77.6924 123.51 77.832 124.145 77.832C124.784 77.832 125.305 77.6924 125.707 77.4131C126.109 77.1296 126.405 76.7275 126.595 76.207C126.786 75.6823 126.881 75.0623 126.881 74.3472C126.881 73.2596 126.663 72.409 126.227 71.7954C125.795 71.1776 125.106 70.8687 124.158 70.8687C123.523 70.8687 123 71.0083 122.59 71.2876C122.184 71.5669 121.883 71.9668 121.688 72.4873C121.494 73.0036 121.396 73.6235 121.396 74.3472Z" fill="#838B9E"/>
<path d="M209.654 29.9988C209.654 49.3281 193.984 64.9976 174.655 64.9976C155.326 64.9976 139.656 49.3281 139.656 29.9988C139.656 10.6695 155.326 -5 174.655 -5C193.984 -5 209.654 10.6695 209.654 29.9988Z" fill="#E10A1D"/>
<path d="M186 52H178.379V13.0824H174.975C168.744 13.0824 165.484 16.2967 165.484 21.0934C165.484 26.533 167.737 29.0549 172.387 32.2692L176.221 34.9396L165.197 52H157L166.922 36.7692C161.218 32.5659 158.007 28.4615 158.007 21.5385C158.007 12.8846 163.855 7 174.927 7H185.952V52H186Z" fill="white"/>
</g>
<defs>
<clipPath id="clip0_334_5281">
<rect width="200" height="96" rx="12" fill="white"/>
</clipPath>
<clipPath id="clip1_334_5281">
<rect width="18" height="48" fill="white" transform="matrix(-1 0 0 1 34 12)"/>
</clipPath>
<clipPath id="clip2_334_5281">
<rect width="18" height="48" fill="white" transform="translate(95 12)"/>
</clipPath>
</defs>
</svg>
