<svg width="85" height="17" viewBox="0 0 85 17" fill="none" xmlns="http://www.w3.org/2000/svg">
<path d="M8.50063 12.2336L11.4402 14.0116C11.9785 14.3374 12.6373 13.8557 12.4956 13.2466L11.7165 9.90323L14.316 7.65073C14.7906 7.2399 14.5356 6.46073 13.9123 6.41115L10.491 6.12073L9.1523 2.96156C8.91147 2.38781 8.0898 2.38781 7.84897 2.96156L6.51022 6.11365L3.08896 6.40406C2.46563 6.45365 2.21063 7.23281 2.68521 7.64365L5.2848 9.89615L4.50563 13.2395C4.36397 13.8486 5.02272 14.3303 5.56105 14.0045L8.50063 12.2336Z" fill="#C82634"/>
<path d="M25.5006 12.2336L28.4402 14.0116C28.9785 14.3374 29.6373 13.8557 29.4956 13.2466L28.7165 9.90323L31.316 7.65073C31.7906 7.2399 31.5356 6.46073 30.9123 6.41115L27.491 6.12073L26.1523 2.96156C25.9115 2.38781 25.0898 2.38781 24.849 2.96156L23.5102 6.11365L20.089 6.40406C19.4656 6.45365 19.2106 7.23281 19.6852 7.64365L22.2848 9.89615L21.5056 13.2395C21.364 13.8486 22.0227 14.3303 22.561 14.0045L25.5006 12.2336Z" fill="#C82634"/>
<path d="M42.5006 12.2336L45.4402 14.0116C45.9785 14.3374 46.6373 13.8557 46.4956 13.2466L45.7165 9.90323L48.316 7.65073C48.7906 7.2399 48.5356 6.46073 47.9123 6.41115L44.491 6.12073L43.1523 2.96156C42.9115 2.38781 42.0898 2.38781 41.849 2.96156L40.5102 6.11365L37.089 6.40406C36.4656 6.45365 36.2106 7.23281 36.6852 7.64365L39.2848 9.89615L38.5056 13.2395C38.364 13.8486 39.0227 14.3303 39.561 14.0045L42.5006 12.2336Z" fill="#C82634"/>
<path d="M59.5006 12.2336L62.4402 14.0116C62.9785 14.3374 63.6373 13.8557 63.4956 13.2466L62.7165 9.90323L65.316 7.65073C65.7906 7.2399 65.5356 6.46073 64.9123 6.41115L61.491 6.12073L60.1523 2.96156C59.9115 2.38781 59.0898 2.38781 58.849 2.96156L57.5102 6.11365L54.089 6.40406C53.4656 6.45365 53.2106 7.23281 53.6852 7.64365L56.2848 9.89615L55.5056 13.2395C55.364 13.8486 56.0227 14.3303 56.561 14.0045L59.5006 12.2336Z" fill="#C82634"/>
<path d="M76.5006 12.2336L79.4402 14.0116C79.9785 14.3374 80.6373 13.8557 80.4956 13.2466L79.7165 9.90323L82.316 7.65073C82.7906 7.2399 82.5356 6.46073 81.9123 6.41115L78.491 6.12073L77.1523 2.96156C76.9115 2.38781 76.0898 2.38781 75.849 2.96156L74.5102 6.11365L71.089 6.40406C70.4656 6.45365 70.2106 7.23281 70.6852 7.64365L73.2848 9.89615L72.5056 13.2395C72.364 13.8486 73.0227 14.3303 73.561 14.0045L76.5006 12.2336Z" fill="#C82634"/>
</svg>
